<svg width="28" height="28" viewBox="0 0 28 28" fill="none" xmlns="http://www.w3.org/2000/svg">
<path d="M14 14.8333C14.4602 14.8333 14.8333 14.4602 14.8333 14C14.8333 13.5398 14.4602 13.1667 14 13.1667C13.5397 13.1667 13.1666 13.5398 13.1666 14C13.1666 14.4602 13.5397 14.8333 14 14.8333Z" stroke="#98A2B3" stroke-width="1.66667" stroke-linecap="round" stroke-linejoin="round"/>
<path d="M19.8333 14.8333C20.2935 14.8333 20.6666 14.4602 20.6666 14C20.6666 13.5398 20.2935 13.1667 19.8333 13.1667C19.3731 13.1667 19 13.5398 19 14C19 14.4602 19.3731 14.8333 19.8333 14.8333Z" stroke="#98A2B3" stroke-width="1.66667" stroke-linecap="round" stroke-linejoin="round"/>
<path d="M8.16665 14.8333C8.62688 14.8333 8.99998 14.4602 8.99998 14C8.99998 13.5398 8.62688 13.1667 8.16665 13.1667C7.70641 13.1667 7.33331 13.5398 7.33331 14C7.33331 14.4602 7.70641 14.8333 8.16665 14.8333Z" stroke="#98A2B3" stroke-width="1.66667" stroke-linecap="round" stroke-linejoin="round"/>
</svg>
